:FULLY-SPECIFIED
:FORCE-ALL-JOINTS-BE-3DOF
:DEGREES
469
root 10.7803 17.3225 29.7212 5.05357 2.42365 3.48785
lfemur -4.67941 2.77289 -28.593
ltibia 15.4598 -0 0
lfoot -14.0943 4.71944 0.00224157
ltoes 1.1288 -0 0
rfemur -28.544 4.9798 13.6224
rtibia 49.3623 -0 0
rfoot -17.3368 -8.24072 0.0205695
rtoes -10.9256 0 0
lowerback -5.67589 -2.79893 -4.01096
upperback -0.898576 -3.51196 1.25091
thorax 2.62343 -1.79697 3.20504
lowerneck -21.6621 -3.37428 -11.0292
upperneck 24.7307 -4.09779 10.8566
head 12.2266 -1.47759 5.33282
lclavicle 2.62644e-14 2.22639e-14 0
lhumerus -20.9669 -17.1528 88.573
lradius 26.7053 -0 0
lwrist -0.0111235 0 0
lhand -12.568 -24.5755 0.021562
lfingers 7.12502 -0 0
lthumb 13.5091 4.95893 0.0192223
rclavicle 2.62644e-14 2.22639e-14 0
rhumerus -47.4395 9.35376 -87.2434
rradius 35.0311 -0 0
rwrist -15.1639 0 0
rhand -29.8186 -28.1959 0.025824
rfingers 7.12502 -0 0
rthumb -3.14226 -58.1514 0.0248831
470
root 10.7799 17.3143 29.8498 5.03989 2.52858 3.5667
lfemur -3.82159 2.71479 -28.616
ltibia 14.8156 -0 0
lfoot -14.1754 4.71167 0.00227454
ltoes 1.1964 -0 0
rfemur -29.1131 5.3908 13.3717
rtibia 48.4388 -0 0
rfoot -17.8439 -8.25214 0.0208728
rtoes -10.4266 0 0
lowerback -5.68536 -2.89998 -4.083
upperback -0.861849 -3.64121 1.24365
thorax 2.68288 -1.86386 3.22381
lowerneck -21.6993 -3.33295 -10.981
upperneck 24.7575 -4.05751 10.8685
head 12.2381 -1.45278 5.33761
lclavicle 2.62644e-14 2.22639e-14 0
lhumerus -20.661 -17.4587 88.4788
lradius 27.0606 -0 0
lwrist 0.25771 0 0
lhand -12.6533 -24.6465 0.0218791
lfingers 7.12502 -0 0
lthumb 13.4269 4.89324 0.019505
rclavicle 2.62644e-14 2.22639e-14 0
rhumerus -47.5699 9.27787 -87.1797
rradius 35.0725 -0 0
rwrist -15.3116 0 0
rhand -29.7838 -27.987 0.0262039
rfingers 7.12502 -0 0
rthumb -3.10871 -57.943 0.0252492
471
root 10.7794 17.3061 29.9784 5.02635 2.63352 3.64552
lfemur -2.96379 2.65703 -28.6398
ltibia 14.1715 -0 0
lfoot -14.2564 4.7039 0.00229652
ltoes 1.264 -0 0
rfemur -29.6843 5.79929 13.1167
rtibia 47.5153 -0 0
rfoot -18.3509 -8.26357 0.021075
rtoes -9.92756 0 0
lowerback -5.6947 -3.00104 -4.15502
upperback -0.8251 -3.77045 1.23631
thorax 2.74231 -1.93078 3.2425
lowerneck -21.7366 -3.29158 -10.9328
upperneck 24.7842 -4.01724 10.8804
head 12.2496 -1.42798 5.34241
lclavicle 2.62644e-14 2.22639e-14 0
lhumerus -20.3541 -17.764 88.3827
lradius 27.4159 -0 0
lwrist 0.526544 0 0
lhand -12.7386 -24.7175 0.0220905
lfingers 7.12502 -0 0
lthumb 13.3447 4.82755 0.0196935
rclavicle 2.62644e-14 2.22639e-14 0
rhumerus -47.7004 9.20211 -87.1159
rradius 35.1139 -0 0
rwrist -15.4593 0 0
rhand -29.7491 -27.7781 0.0264572
rfingers 7.12502 -0 0
rthumb -3.07516 -57.7346 0.0254932
472
root 10.7789 17.2979 30.107 5.01295 2.73848 3.72433
lfemur -2.106 2.59964 -28.6645
ltibia 13.5273 -0 0
lfoot -14.3375 4.69613 0.0023075
ltoes 1.3316 -0 0
rfemur -30.2579 6.20523 12.8575
rtibia 46.5918 -0 0
rfoot -18.8579 -8.27499 0.0211761
rtoes -9.42856 0 0
lowerback -5.70391 -3.10212 -4.22704
upperback -0.788329 -3.89968 1.22889
thorax 2.80172 -1.99771 3.26113
lowerneck -21.7738 -3.25018 -10.8847
upperneck 24.811 -3.97697 10.8924
head 12.2611 -1.40318 5.34721
lclavicle 2.62644e-14 2.22639e-14 0
lhumerus -20.0461 -18.0688 88.2847
lradius 27.7712 -0 0
lwrist 0.795378 0 0
lhand -12.8239 -24.7885 0.0221962
lfingers 7.12502 -0 0
lthumb 13.2625 4.76186 0.0197878
rclavicle 2.62644e-14 2.22639e-14 0
rhumerus -47.831 9.1265 -87.0519
rradius 35.1553 -0 0
rwrist -15.607 0 0
rhand -29.7144 -27.5692 0.0265839
rfingers 7.12502 -0 0
rthumb -3.04161 -57.5262 0.0256153
473
root 10.7785 17.2896 30.2355 4.9997 2.84346 3.80312
lfemur -1.24823 2.54263 -28.69
ltibia 12.8832 -0 0
lfoot -14.4185 4.68837 0.0023075
ltoes 1.3992 -0 0
rfemur -30.8337 6.60855 12.5939
rtibia 45.6684 -0 0
rfoot -19.3649 -8.28642 0.0211761
rtoes -8.92955 0 0
lowerback -5.71299 -3.2032 -4.29904
upperback -0.751536 -4.02891 1.22138
thorax 2.86111 -2.06466 3.27969
lowerneck -21.8109 -3.20875 -10.8366
upperneck 24.8378 -3.93671 10.9043
head 12.2726 -1.37838 5.35202
lclavicle 2.62644e-14 2.22639e-14 0
lhumerus -19.7371 -18.3731 88.1848
lradius 28.1266 -0 0
lwrist 1.06421 0 0
lhand -12.9091 -24.8596 0.0221962
lfingers 7.12502 -0 0
lthumb 13.1804 4.69617 0.0197878
rclavicle 2.62644e-14 2.22639e-14 0
rhumerus -47.9616 9.05104 -86.9877
rradius 35.1967 -0 0
rwrist -15.7548 0 0
rhand -29.6796 -27.3604 0.0265839
rfingers 7.12502 -0 0
rthumb -3.00806 -57.3178 0.0256153
474
root 10.778 17.2814 30.3641 4.98659 2.94846 3.88189
lfemur -0.390469 2.48601 -28.7164
ltibia 12.239 -0 0
lfoot -14.4996 4.6806 0.00229652
ltoes 1.4668 -0 0
rfemur -31.4118 7.00922 12.3261
rtibia 44.7449 -0 0
rfoot -19.8719 -8.29784 0.021075
rtoes -8.43055 0 0
lowerback -5.72195 -3.3043 -4.37104
upperback -0.714719 -4.15814 1.21378
thorax 2.92048 -2.13164 3.29818
lowerneck -21.848 -3.16729 -10.7885
upperneck 24.8646 -3.89646 10.9163
head 12.2841 -1.35359 5.35683
lclavicle 2.62644e-14 2.22639e-14 0
lhumerus -19.4269 -18.6769 88.083
lradius 28.4819 -0 0
lwrist 1.33305 0 0
lhand -12.9944 -24.9306 0.0220905
lfingers 7.12502 -0 0
lthumb 13.0982 4.63048 0.0196935
rclavicle 2.62644e-14 2.22639e-14 0
rhumerus -48.0922 8.97571 -86.9234
rradius 35.2381 -0 0
rwrist -15.9025 0 0
rhand -29.6449 -27.1515 0.0264572
rfingers 7.12502 -0 0
rthumb -2.97451 -57.1094 0.0254932
